<?xml version="1.0" encoding="UTF-8"?>
<svg width="141px" height="110px" viewBox="0 0 141 110" version="1.1" xmlns="http://www.w3.org/2000/svg" xmlns:xlink="http://www.w3.org/1999/xlink">
    <!-- Generator: Sketch 43.1 (39012) - http://www.bohemiancoding.com/sketch -->
    <title>hand</title>
    <desc>Created with Sketch.</desc>
    <defs>
        <path d="M559.879087,228.746287 C559.507696,228.049829 559.026077,227.395922 558.434246,226.809819 L529.259619,197.917596 C526.082215,194.770948 520.930931,194.770992 517.753688,197.91748 C514.575747,201.064659 514.576498,206.165484 517.753805,209.312036 L526.74952,218.220675 L456.844324,218.220675 C452.613416,218.220675 449.183243,221.619612 449.183243,225.812413 C449.183243,229.996683 452.613226,233.404151 456.844324,233.404151 L510.103674,233.404151 L497.429813,233.404151 C493.199772,233.404151 489.767646,236.803088 489.767646,240.99589 C489.767646,245.180159 493.198115,248.587628 497.429813,248.587628 L506.001408,248.587628 L501.038299,248.587628 C496.799729,248.587628 493.375149,251.986565 493.375149,256.179366 C493.375149,260.363636 496.806058,263.771105 501.038299,263.771105 L510.103674,263.771105 L508.254762,263.771105 C504.023234,263.771105 500.590154,267.170042 500.590154,271.362843 C500.590154,275.547113 504.021716,278.954581 508.254762,278.954581 L536.215576,278.954581 C536.265614,278.954581 536.315541,278.954106 536.365352,278.95316 C536.465181,278.954107 536.565124,278.954581 536.665179,278.954581 C553.600312,278.954581 567.32895,265.358833 567.32895,248.587628 C567.32895,241.003182 564.521277,234.068156 559.879087,228.746287 Z" id="path-1"></path>
    </defs>
    <g id="Page-1" stroke="none" stroke-width="1" fill="none" fill-rule="evenodd">
        <g id="Artboard-Copy-49" transform="translate(-441.000000, -179.000000)">
            <g id="hand" transform="translate(508.256097, 237.256097) rotate(-45.000000) translate(-508.256097, -237.256097) ">
                <use fill="#4503A3" fill-rule="evenodd" xlink:href="#path-1"></use>
                <path stroke-opacity="0.225911458" stroke="#86E7BF" stroke-width="15" d="M566.024841,224.393815 C565.377225,223.340444 564.602322,222.362798 563.711692,221.480789 L534.537066,192.588566 C528.436786,186.547335 518.576448,186.547292 512.476242,192.58845 C507.528287,197.48851 506.567209,204.860286 509.592252,210.720675 L456.844324,210.720675 C448.486431,210.720675 441.683243,217.46217 441.683243,225.812413 C441.683243,234.155792 448.48796,240.904151 456.844324,240.904151 L482.26792,240.904151 C482.267738,240.934709 482.267646,240.965289 482.267646,240.99589 C482.267646,245.108821 483.921321,248.834057 486.599319,251.554407 C486.129137,253.011159 485.875149,254.565152 485.875149,256.179366 C485.875149,261.684696 488.838158,266.495242 493.254667,269.131125 C493.146304,269.859188 493.090154,270.604376 493.090154,271.362843 C493.090154,279.707002 499.897217,286.454581 508.254762,286.454581 L536.215576,286.454581 C536.305888,286.454295 536.340426,286.454186 536.38802,286.4536 C536.480375,286.454254 536.572761,286.454581 536.665179,286.454581 C557.726205,286.454581 574.82895,269.517387 574.82895,248.587628 C574.82895,239.626021 571.671445,231.132875 566.024841,224.393815 Z"></path>
                <path stroke-opacity="0.472995924" stroke="#86E7BF" stroke-width="10" d="M563.987412,225.855572 C563.425871,224.913472 562.743956,224.040884 561.952543,223.257132 L532.777917,194.364909 C527.65194,189.28855 519.361287,189.288514 514.23539,194.364793 C509.082003,199.468297 509.082439,207.761535 514.235508,212.864723 L514.594938,213.220675 L456.844324,213.220675 C449.862071,213.220675 444.183243,218.848006 444.183243,225.812413 C444.183243,232.770404 449.864039,238.404151 456.844324,238.404151 L485.036026,238.404151 C484.860139,239.240356 484.767646,240.107241 484.767646,240.99589 C484.767646,244.991235 486.640825,248.54987 489.557584,250.856038 C488.798969,252.472053 488.375149,254.275643 488.375149,256.179366 C488.375149,261.396333 491.569136,265.86857 496.109933,267.780227 C495.771758,268.915343 495.590154,270.117719 495.590154,271.362843 C495.590154,278.321354 501.273041,283.954581 508.254762,283.954581 L536.215576,283.954581 C536.303784,283.954302 536.328473,283.954224 536.381035,283.953479 C536.475711,283.954214 536.570426,283.954581 536.665179,283.954581 C556.350908,283.954581 572.32895,268.131202 572.32895,248.587628 C572.32895,240.155963 569.337053,232.172348 563.987412,225.855572 Z"></path>
                <path stroke="#86E7BF" stroke-width="5" d="M561.940573,227.308109 C561.468488,226.480624 560.882742,225.71615 560.193395,225.033475 L531.018768,196.141252 C526.867094,192.029766 520.146125,192.029736 515.994539,196.141136 C511.828995,200.266359 511.829348,206.96339 515.994656,211.08838 L520.672229,215.720675 L456.844324,215.720675 C451.23771,215.720675 446.683243,220.233841 446.683243,225.812413 C446.683243,231.385017 451.240118,235.904151 456.844324,235.904151 L488.654211,235.904151 C487.773007,237.398363 487.267646,239.138077 487.267646,240.99589 C487.267646,244.973096 489.589037,248.413622 492.955771,250.05768 C491.650489,251.754686 490.875149,253.87592 490.875149,256.179366 C490.875149,261.246868 494.644072,265.443014 499.542151,266.162247 C498.620573,267.680527 498.090154,269.459698 498.090154,271.362843 C498.090154,276.935707 502.648864,281.454581 508.254762,281.454581 L536.215576,281.454581 C536.314323,281.454269 536.314323,281.454269 536.412837,281.452709 C536.449428,281.45407 536.557275,281.454581 536.665179,281.454581 C554.97561,281.454581 569.82895,266.745018 569.82895,248.587628 C569.82895,240.681524 566.999184,233.203729 561.940573,227.308109 Z"></path>
            </g>
        </g>
    </g>
</svg>